<svg xmlns="http://www.w3.org/2000/svg" xmlns:xlink="http://www.w3.org/1999/xlink" height="100" width="100" version="1.1"><path d="M1446 790q33 -2 33 -32q0 -23 -35 -55q-105 -98 -166 -190q-50 -76 -50 -123q0 -17 24 -211q4 -29 4 -59q0 -268 -267 -268q-211 0 -348 172q-65 81 -65 172q0 64 34 134q37 75 157 189q105 100 105 162q0 63 -50 115q-24 24 -102 96q-150 136 -150 293q0 151 119 235
q92 65 261 65q165 0 258 -48q130 -67 130 -251q0 -176 -127 -242q-99 -52 -158 -52q-43 0 -43 37q0 30 57 45q105 29 143 66q49 48 49 136q0 152 -114 198q-69 29 -193 29q-147 0 -212 -48q-91 -66 -91 -175q0 -64 41 -129q29 -45 65 -80l109 -106q91 -88 91 -179
q0 -35 -16 -75q-21 -56 -115 -151q-101 -104 -131 -149q-36 -55 -36 -107q0 -106 106 -191q102 -81 224 -81q188 0 188 185q0 71 -17 180q-9 53 -9 88q0 101 112 240q134 169 185 165z" style="" transform="scale(0.05 -0.05) translate(0 -1650)"/></svg>