<svg xmlns="http://www.w3.org/2000/svg" xmlns:xlink="http://www.w3.org/1999/xlink" height="100" width="100" version="1.1"><path d="M675 1076q-5 95 -12 156q-46 -64 -127 -155q-81 -90 -108 -90q-21 0 -35 22q-4 5 -4 9q0 9 35 38q58 48 134 150q66 87 100 151l-38 -1l-96 -2l-10 -1q-1 0 -38 18q-23 10 -23 26q0 14 18 25q15 9 93 9l267 1q57 0 69 -7q19 -13 19 -34q0 -32 -75 -32h-25q-23 1 -44 1
q-7 0 -30 -1q-9 -17 -24 -42q48 -189 48 -431q0 -5 -1 -24q23 18 42 18q55 0 76 -67q7 -22 8 -110l2 -86q0 -133 -48 -361q-10 -48 -34 -67q-28 -22 -48 -22h-4q-19 0 -19 22q0 12 16 60q53 154 63 351l4 63l1 62q1 21 1 23q0 29 -19 29q-16 0 -49 -36q-16 -179 -45 -302
q-52 -219 -93 -306q-42 -91 -100 -91q-9 0 -16 7q-9 10 -9 21q1 14 16 39q53 86 108 297q36 140 49 233q-24 -26 -46 -47q-38 -37 -102 -106q-54 -59 -68 -59q-10 0 -20 6q-29 17 -29 35q0 15 124 142q110 113 154 163v35l2 112q-2 21 -2 37q-53 -76 -159 -191
q-53 -58 -88 -58q-34 0 -34 24q0 14 37 47q123 110 236 297zM1182 889q-75 -47 -102 -104q-21 -44 -38 -224q-18 -184 -20 -316q-2 -85 -5 -169q-2 -57 -2 -100q1 -63 -25 -84q-18 -15 -30 -15q-24 0 -24 51v45q6 394 33 634q17 161 49 224q34 68 127 128q-129 31 -155 90
q-15 33 -35 136q-16 80 -16 95q0 37 24 37q42 0 46 -48q1 -11 16 -84q18 -90 41 -116q34 -40 113 -45l6 131l2 149l-1 99v49q0 21 -1 28v4q0 24 17 24q48 0 48 -70l-1 -49l1 -241v-11q0 -8 -1 -23q-1 -28 -2 -84q70 7 101 25t43 59q11 32 13 124q1 32 14 45q15 16 28 16
q6 0 11 -3q24 -16 24 -55q0 -11 -12 -127q-4 -42 -36 -78q-35 -40 -131 -63q106 -24 143 -66q35 -38 57 -171q40 -238 57 -459q17 -216 17 -292q0 -39 -30 -70q-10 -10 -22 -10q-29 0 -35 54q-6 62 -12 239q-9 262 -57 572q-13 81 -62 109q-23 13 -108 27q1 -43 3 -252
q40 -12 88 -34l-3 43v7q0 29 29 29q32 0 38 -49q10 -69 10 -266q0 -148 -20 -185q-38 -70 -143 -70q-106 0 -148 44q-41 44 -41 127v16l1 86q4 175 4 176l2 38q3 66 28 66q23 0 34 -18l9 -14l-2 -7v-20q33 14 43 30q7 11 5 52zM1146 510v-82l100 6l90 6q-1 24 -1 33
q0 16 1 42q-59 34 -110 56q-15 -8 -80 -61zM1151 364l1 -74q0 -66 93 -66q50 0 66 12q20 14 21 53l2 85q-79 -4 -183 -10zM1075 1424q45 0 59 -20q12 -16 14 -72q0 -26 3 -85q1 -10 2 -63q0 -31 1 -51q1 -13 1 -18q0 -43 -28 -43q-14 0 -28 21t-14 55l1 37l-2 56
q-2 96 -7 111q-7 20 -26 20h-8q-17 -1 -28 -1q-49 0 -49 26q0 27 109 27zM1418 1338h-28q-44 0 -44 -42q0 -10 1 -25q2 -36 3 -86l2 -43q0 -39 -43 -39q-22 0 -24 97t-2 109q-1 22 -1 29q0 41 30 52q50 17 145 17q44 0 44 -40q0 -17 -12 -22q-15 -7 -71 -7z" style="" transform="scale(0.05 -0.05) translate(0 -1650)"/></svg>